<svg xmlns="http://www.w3.org/2000/svg" width="6200" height="4000" viewBox="0 0 6200 4000"><rect width="6200" height="4000" fill="#ffffff"/><style>text{font-family:Arial,sans-serif;fill:#1e293b}.edge{stroke:#64748b;stroke-width:3;fill:none}.attr-edge{stroke:#94a3b8;stroke-width:2}.entity{fill:#dbeafe;stroke:#245a9b;stroke-width:4}.subtype{fill:#dcfce7;stroke:#2e7d32;stroke-width:4}.relation{fill:#ffedd5;stroke:#d97706;stroke-width:4}.attr{fill:#fff;stroke:#64748b;stroke-width:3}.derived{stroke-dasharray:10 8}</style><text x="3100" y="55" text-anchor="middle" font-size="30" font-weight="700">DER conceptual — Sistema de Gestión Villafañe Wifi</text><line class="edge" x1="410" y1="640" x2="995" y2="650"/><line class="edge" x1="995" y1="650" x2="1510" y2="640"/><text x="702.5" y="635" font-size="22" font-weight="700" text-anchor="middle">1</text><text x="1252.5" y="635" font-size="22" font-weight="700" text-anchor="middle">N</text><line class="edge" x1="1510" y1="640" x2="2220" y2="650"/><line class="edge" x1="2220" y1="650" x2="2810" y2="640"/><text x="1865" y="635" font-size="22" font-weight="700" text-anchor="middle">N</text><text x="2515" y="635" font-size="22" font-weight="700" text-anchor="middle">1</text><line class="edge" x1="2810" y1="640" x2="3545" y2="650"/><line class="edge" x1="3545" y1="650" x2="4160" y2="640"/><text x="3177.5" y="635" font-size="22" font-weight="700" text-anchor="middle">0..1</text><text x="3852.5" y="635" font-size="22" font-weight="700" text-anchor="middle">N</text><line class="edge" x1="1510" y1="640" x2="1545" y2="1305"/><line class="edge" x1="1545" y1="1305" x2="1510" y2="1940"/><text x="1527.5" y="962.5" font-size="22" font-weight="700" text-anchor="middle">1</text><text x="1527.5" y="1612.5" font-size="22" font-weight="700" text-anchor="middle">N</text><line class="edge" x1="1510" y1="1940" x2="2220" y2="1950"/><line class="edge" x1="2220" y1="1950" x2="2810" y2="1940"/><text x="1865" y="1935" font-size="22" font-weight="700" text-anchor="middle">1</text><text x="2515" y="1935" font-size="22" font-weight="700" text-anchor="middle">N</text><line class="edge" x1="2810" y1="1940" x2="3545" y2="1950"/><line class="edge" x1="3545" y1="1950" x2="4160" y2="1940"/><text x="3177.5" y="1935" font-size="22" font-weight="700" text-anchor="middle">1</text><text x="3852.5" y="1935" font-size="22" font-weight="700" text-anchor="middle">0..1</text><line class="edge" x1="4160" y1="640" x2="3545" y2="1305"/><line class="edge" x1="3545" y1="1305" x2="2810" y2="1940"/><text x="3852.5" y="962.5" font-size="22" font-weight="700" text-anchor="middle">1</text><text x="3177.5" y="1612.5" font-size="22" font-weight="700" text-anchor="middle">N</text><line class="edge" x1="4160" y1="640" x2="4620" y2="2555"/><line class="edge" x1="4620" y1="2555" x2="4160" y2="3140"/><text x="4390" y="1587.5" font-size="22" font-weight="700" text-anchor="middle">1</text><text x="4390" y="2837.5" font-size="22" font-weight="700" text-anchor="middle">N</text><line class="edge" x1="1510" y1="640" x2="2720" y2="2725"/><line class="edge" x1="2720" y1="2725" x2="4160" y2="3140"/><text x="2115" y="1672.5" font-size="22" font-weight="700" text-anchor="middle">1</text><text x="3440" y="2922.5" font-size="22" font-weight="700" text-anchor="middle">N</text><line class="edge" x1="5180" y1="940" x2="4880" y2="745"/><line class="edge" x1="4880" y1="745" x2="4160" y2="640"/><text x="5030" y="832.5" font-size="22" font-weight="700" text-anchor="middle">0..1</text><text x="4520" y="682.5" font-size="22" font-weight="700" text-anchor="middle">N</text><line class="edge" x1="5180" y1="940" x2="4420" y2="1375"/><line class="edge" x1="4420" y1="1375" x2="2810" y2="1940"/><text x="4800" y="1147.5" font-size="22" font-weight="700" text-anchor="middle">0..1</text><text x="3615" y="1647.5" font-size="22" font-weight="700" text-anchor="middle">N</text><line class="edge" x1="5180" y1="940" x2="4820" y2="2555"/><line class="edge" x1="4820" y1="2555" x2="4160" y2="3140"/><text x="5000" y="1737.5" font-size="22" font-weight="700" text-anchor="middle">0..1</text><text x="4490" y="2837.5" font-size="22" font-weight="700" text-anchor="middle">N</text><line class="edge" x1="4160" y1="3140" x2="4820" y2="3150"/><line class="edge" x1="4820" y1="3150" x2="5310" y2="3140"/><text x="4490" y="3135" font-size="22" font-weight="700" text-anchor="middle">1</text><text x="5065" y="3135" font-size="22" font-weight="700" text-anchor="middle">N</text><line class="edge" x1="5180" y1="940" x2="5390" y2="2405"/><line class="edge" x1="5390" y1="2405" x2="5310" y2="3140"/><text x="5285" y="1662.5" font-size="22" font-weight="700" text-anchor="middle">1</text><text x="5350" y="2762.5" font-size="22" font-weight="700" text-anchor="middle">N</text><line class="edge" x1="5180" y1="940" x2="5220" y2="695"/><line class="edge" x1="5220" y1="695" x2="5490" y2="340"/><text x="5200" y="807.5" font-size="22" font-weight="700" text-anchor="middle">1</text><text x="5355" y="507.5" font-size="22" font-weight="700" text-anchor="middle">1</text><line class="edge" x1="5810" y1="940" x2="5800" y2="695"/><line class="edge" x1="5800" y1="695" x2="5490" y2="340"/><text x="5805" y="807.5" font-size="22" font-weight="700" text-anchor="middle">1</text><text x="5645" y="507.5" font-size="22" font-weight="700" text-anchor="middle">1</text><line class="attr-edge" x1="410" y1="640" x2="410" y2="375"/><line class="attr-edge" x1="410" y1="640" x2="150" y2="500"/><line class="attr-edge" x1="410" y1="640" x2="150" y2="765"/><line class="attr-edge" x1="410" y1="640" x2="410" y2="885"/><line class="attr-edge" x1="410" y1="640" x2="665" y2="765"/><line class="attr-edge" x1="1510" y1="640" x2="1510" y2="375"/><line class="attr-edge" x1="1510" y1="640" x2="1200" y2="315"/><line class="attr-edge" x1="1200" y1="315" x2="935" y2="175"/><line class="attr-edge" x1="1200" y1="315" x2="1165" y2="155"/><line class="attr-edge" x1="1200" y1="315" x2="1395" y2="175"/><line class="attr-edge" x1="1510" y1="640" x2="1755" y2="260"/><line class="attr-edge" x1="1510" y1="640" x2="1875" y2="415"/><line class="attr-edge" x1="1510" y1="640" x2="1150" y2="885"/><line class="attr-edge" x1="1510" y1="640" x2="1410" y2="970"/><line class="attr-edge" x1="1510" y1="640" x2="1670" y2="970"/><line class="attr-edge" x1="1510" y1="640" x2="1925" y2="885"/><line class="attr-edge" x1="2810" y1="640" x2="2810" y2="375"/><line class="attr-edge" x1="2810" y1="640" x2="2510" y2="315"/><line class="attr-edge" x1="2510" y1="315" x2="2280" y2="175"/><line class="attr-edge" x1="2510" y1="315" x2="2505" y2="155"/><line class="attr-edge" x1="2810" y1="640" x2="3070" y2="315"/><line class="attr-edge" x1="2810" y1="640" x2="3300" y2="500"/><line class="attr-edge" x1="2810" y1="640" x2="2500" y2="885"/><line class="attr-edge" x1="2500" y1="885" x2="2260" y2="1025"/><line class="attr-edge" x1="2500" y1="885" x2="2495" y2="1045"/><line class="attr-edge" x1="2500" y1="885" x2="2730" y2="1025"/><line class="attr-edge" x1="2810" y1="640" x2="3070" y2="885"/><line class="attr-edge" x1="4160" y1="640" x2="4160" y2="375"/><line class="attr-edge" x1="4160" y1="640" x2="3810" y2="305"/><line class="attr-edge" x1="4160" y1="640" x2="4410" y2="305"/><line class="attr-edge" x1="4160" y1="640" x2="4670" y2="500"/><line class="attr-edge" x1="4160" y1="640" x2="4420" y2="885"/><line class="attr-edge" x1="4160" y1="640" x2="3870" y2="885"/><line class="attr-edge" x1="5490" y1="340" x2="5490" y2="100"/><line class="attr-edge" x1="5490" y1="340" x2="5180" y2="195"/><line class="attr-edge" x1="5490" y1="340" x2="5750" y2="195"/><line class="attr-edge" x1="5490" y1="340" x2="5810" y2="460"/><line class="attr-edge" x1="5180" y1="940" x2="4920" y2="1100"/><line class="attr-edge" x1="5180" y1="940" x2="5435" y2="1100"/><line class="attr-edge" x1="5810" y1="940" x2="5810" y2="1100"/><line class="attr-edge" x1="1510" y1="1940" x2="1510" y2="1680"/><line class="attr-edge" x1="1510" y1="1940" x2="1200" y2="1620"/><line class="attr-edge" x1="1510" y1="1940" x2="1800" y2="1620"/><line class="attr-edge" x1="1510" y1="1940" x2="1150" y2="2190"/><line class="attr-edge" x1="1510" y1="1940" x2="1475" y2="2275"/><line class="attr-edge" x1="1510" y1="1940" x2="1820" y2="2190"/><line class="attr-edge" x1="2810" y1="1940" x2="2810" y2="1680"/><line class="attr-edge" x1="2810" y1="1940" x2="2470" y2="1620"/><line class="attr-edge" x1="2810" y1="1940" x2="3120" y2="1620"/><line class="attr-edge" x1="2810" y1="1940" x2="2390" y2="2170"/><line class="attr-edge" x1="2810" y1="1940" x2="2645" y2="2290"/><line class="attr-edge" x1="2810" y1="1940" x2="2920" y2="2290"/><line class="attr-edge" x1="2810" y1="1940" x2="3180" y2="2170"/><line class="attr-edge" x1="2810" y1="1940" x2="3340" y2="1930"/><line class="attr-edge" x1="4160" y1="1940" x2="4160" y2="1680"/><line class="attr-edge" x1="4160" y1="1940" x2="3820" y2="1620"/><line class="attr-edge" x1="4160" y1="1940" x2="4450" y2="1620"/><line class="attr-edge" x1="4160" y1="1940" x2="4160" y2="2210"/><line class="attr-edge" x1="4160" y1="3140" x2="4160" y2="2875"/><line class="attr-edge" x1="4160" y1="3140" x2="3790" y2="2790"/><line class="attr-edge" x1="4160" y1="3140" x2="4530" y2="2790"/><line class="attr-edge" x1="4160" y1="3140" x2="3750" y2="3400"/><line class="attr-edge" x1="4160" y1="3140" x2="4160" y2="3480"/><line class="attr-edge" x1="4160" y1="3140" x2="4560" y2="3400"/><line class="attr-edge" x1="5310" y1="3140" x2="5310" y2="2875"/><line class="attr-edge" x1="5310" y1="3140" x2="5010" y2="2790"/><line class="attr-edge" x1="5310" y1="3140" x2="5630" y2="2790"/><line class="attr-edge" x1="4880" y1="745" x2="4705" y2="527"/><line class="attr-edge" x1="4880" y1="745" x2="4890" y2="457"/><line class="attr-edge" x1="4820" y1="2555" x2="4925" y2="2387"/><polygon class="relation" points="995,595 1115,650 995,705 875,650"/><text x="995" y="643" font-size="15" font-weight="700" text-anchor="middle"><tspan x="995">SE ASIGNA A</tspan><tspan x="995" dy="22">TIENE ASIGNADO</tspan></text><polygon class="relation" points="2220,595 2340,650 2220,705 2100,650"/><text x="2220" y="643" font-size="15" font-weight="700" text-anchor="middle"><tspan x="2220">ES CONTRATADO POR</tspan><tspan x="2220" dy="22">CONTRATA</tspan></text><polygon class="relation" points="3545,595 3665,650 3545,705 3425,650"/><text x="3545" y="643" font-size="15" font-weight="700" text-anchor="middle"><tspan x="3545">MANTIENE</tspan><tspan x="3545" dy="22">ES MANTENIDA POR</tspan></text><polygon class="relation" points="1545,1250 1665,1305 1545,1360 1425,1305"/><text x="1545" y="1298" font-size="15" font-weight="700" text-anchor="middle"><tspan x="1545">GENERA</tspan><tspan x="1545" dy="22">ES GENERADA POR</tspan></text><polygon class="relation" points="2220,1895 2340,1950 2220,2005 2100,1950"/><text x="2220" y="1943" font-size="15" font-weight="700" text-anchor="middle"><tspan x="2220">SE RESPALDA CON</tspan><tspan x="2220" dy="22">RESPALDA</tspan></text><polygon class="relation" points="3545,1895 3665,1950 3545,2005 3425,1950"/><text x="3545" y="1943" font-size="15" font-weight="700" text-anchor="middle"><tspan x="3545">ACREDITA</tspan><tspan x="3545" dy="22">ES ACREDITADO POR</tspan></text><polygon class="relation" points="3545,1250 3665,1305 3545,1360 3425,1305"/><text x="3545" y="1298" font-size="15" font-weight="700" text-anchor="middle"><tspan x="3545">RECIBE</tspan><tspan x="3545" dy="22">ES RECIBIDO EN</tspan></text><polygon class="relation" points="4620,2500 4740,2555 4620,2610 4500,2555"/><text x="4620" y="2548" font-size="15" font-weight="700" text-anchor="middle"><tspan x="4620">GENERA</tspan><tspan x="4620" dy="22">ES GENERADO EN</tspan></text><polygon class="relation" points="2720,2670 2840,2725 2720,2780 2600,2725"/><text x="2720" y="2718" font-size="15" font-weight="700" text-anchor="middle"><tspan x="2720">ES AFECTADO POR</tspan><tspan x="2720" dy="22">AFECTA</tspan></text><polygon class="relation" points="4880,690 5000,745 4880,800 4760,745"/><text x="4880" y="738" font-size="15" font-weight="700" text-anchor="middle"><tspan x="4880">ATIENDE</tspan><tspan x="4880" dy="22">ES ATENDIDA POR</tspan></text><ellipse class="attr" cx="4705" cy="527" rx="95" ry="27"/><text x="4705" y="533" font-size="16" text-anchor="middle">Inicio de atención</text><ellipse class="attr" cx="4890" cy="457" rx="95" ry="27"/><text x="4890" y="463" font-size="16" text-anchor="middle">Fin de atención</text><polygon class="relation" points="4420,1320 4540,1375 4420,1430 4300,1375"/><text x="4420" y="1368" font-size="15" font-weight="700" text-anchor="middle"><tspan x="4420">VALIDA</tspan><tspan x="4420" dy="22">ES VALIDADO POR</tspan></text><polygon class="relation" points="4820,2500 4940,2555 4820,2610 4700,2555"/><text x="4820" y="2548" font-size="15" font-weight="700" text-anchor="middle"><tspan x="4820">GESTIONA</tspan><tspan x="4820" dy="22">ES GESTIONADO POR</tspan></text><ellipse class="attr" cx="4925" cy="2387" rx="95" ry="27"/><text x="4925" y="2393" font-size="16" text-anchor="middle">Fecha de asignación</text><polygon class="relation" points="4820,3095 4940,3150 4820,3205 4700,3150"/><text x="4820" y="3143" font-size="15" font-weight="700" text-anchor="middle"><tspan x="4820">CONTIENE</tspan><tspan x="4820" dy="22">PERTENECE A</tspan></text><polygon class="relation" points="5390,2350 5510,2405 5390,2460 5270,2405"/><text x="5390" y="2398" font-size="15" font-weight="700" text-anchor="middle"><tspan x="5390">REDACTA</tspan><tspan x="5390" dy="22">ES REDACTADA POR</tspan></text><polygon class="relation" points="5220,640 5340,695 5220,750 5100,695"/><text x="5220" y="688" font-size="15" font-weight="700" text-anchor="middle"><tspan x="5220">ES</tspan></text><polygon class="relation" points="5800,640 5920,695 5800,750 5680,695"/><text x="5800" y="688" font-size="15" font-weight="700" text-anchor="middle"><tspan x="5800">ES</tspan></text><ellipse class="attr" cx="410" cy="375" rx="110" ry="30"/><text x="410" y="382" font-size="17" text-anchor="middle" text-decoration="underline" font-weight="700">ID plan</text><ellipse class="attr" cx="150" cy="500" rx="110" ry="30"/><text x="150" y="507" font-size="17" text-anchor="middle">Nombre</text><ellipse class="attr" cx="150" cy="765" rx="110" ry="30"/><text x="150" y="772" font-size="17" text-anchor="middle">Velocidad</text><ellipse class="attr" cx="410" cy="885" rx="110" ry="30"/><text x="410" y="892" font-size="17" text-anchor="middle">Precio vigente</text><ellipse class="attr" cx="665" cy="765" rx="110" ry="30"/><text x="665" y="772" font-size="17" text-anchor="middle">Estado</text><rect class="entity" x="300" y="600" width="220" height="80"/><text x="410" y="649" font-size="22" font-weight="700" text-anchor="middle">PLAN</text><ellipse class="attr" cx="1510" cy="375" rx="110" ry="30"/><text x="1510" y="382" font-size="17" text-anchor="middle" text-decoration="underline" font-weight="700">ID servicio</text><ellipse class="attr" cx="1200" cy="315" rx="110" ry="30"/><text x="1200" y="322" font-size="17" text-anchor="middle">Dirección de instalación</text><ellipse class="attr" cx="935" cy="175" rx="80" ry="25"/><text x="935" y="181" font-size="16" text-anchor="middle">Calle</text><ellipse class="attr" cx="1165" cy="155" rx="80" ry="25"/><text x="1165" y="161" font-size="16" text-anchor="middle">Número</text><ellipse class="attr" cx="1395" cy="175" rx="80" ry="25"/><text x="1395" y="181" font-size="16" text-anchor="middle">Localidad</text><ellipse class="attr derived" cx="1755" cy="260" rx="110" ry="30"/><text x="1755" y="267" font-size="17" text-anchor="middle">Próximo vencimiento</text><ellipse class="attr" cx="1875" cy="415" rx="110" ry="30"/><text x="1875" y="422" font-size="17" text-anchor="middle">Día de vencimiento</text><ellipse class="attr" cx="1150" cy="885" rx="110" ry="30"/><text x="1150" y="892" font-size="17" text-anchor="middle">Fecha de alta</text><ellipse class="attr" cx="1410" cy="970" rx="110" ry="30"/><text x="1410" y="977" font-size="17" text-anchor="middle">IP</text><ellipse class="attr" cx="1670" cy="970" rx="110" ry="30"/><text x="1670" y="977" font-size="17" text-anchor="middle">MAC</text><ellipse class="attr" cx="1925" cy="885" rx="110" ry="30"/><text x="1925" y="892" font-size="17" text-anchor="middle">Estado</text><rect class="entity" x="1400" y="600" width="220" height="80"/><text x="1510" y="649" font-size="22" font-weight="700" text-anchor="middle">SERVICIO</text><ellipse class="attr" cx="2810" cy="375" rx="110" ry="30"/><text x="2810" y="382" font-size="17" text-anchor="middle" text-decoration="underline" font-weight="700">ID cliente</text><ellipse class="attr" cx="2510" cy="315" rx="110" ry="30"/><text x="2510" y="322" font-size="17" text-anchor="middle">Documento</text><ellipse class="attr" cx="2280" cy="175" rx="80" ry="25"/><text x="2280" y="181" font-size="16" text-anchor="middle">Tipo</text><ellipse class="attr" cx="2505" cy="155" rx="80" ry="25"/><text x="2505" y="161" font-size="16" text-anchor="middle">Número</text><ellipse class="attr" cx="3070" cy="315" rx="110" ry="30"/><text x="3070" y="322" font-size="17" text-anchor="middle">Nombre / razón social</text><ellipse class="attr" cx="3300" cy="500" rx="106" ry="26"/><ellipse class="attr" cx="3300" cy="500" rx="110" ry="30"/><text x="3300" y="507" font-size="17" text-anchor="middle">Teléfono</text><ellipse class="attr" cx="2500" cy="885" rx="110" ry="30"/><text x="2500" y="892" font-size="17" text-anchor="middle">Dirección de contacto</text><ellipse class="attr" cx="2260" cy="1025" rx="80" ry="25"/><text x="2260" y="1031" font-size="16" text-anchor="middle">Calle</text><ellipse class="attr" cx="2495" cy="1045" rx="80" ry="25"/><text x="2495" y="1051" font-size="16" text-anchor="middle">Número</text><ellipse class="attr" cx="2730" cy="1025" rx="80" ry="25"/><text x="2730" y="1031" font-size="16" text-anchor="middle">Localidad</text><ellipse class="attr" cx="3070" cy="885" rx="110" ry="30"/><text x="3070" y="892" font-size="17" text-anchor="middle">Estado</text><rect class="entity" x="2700" y="600" width="220" height="80"/><text x="2810" y="649" font-size="22" font-weight="700" text-anchor="middle">CLIENTE</text><ellipse class="attr" cx="4160" cy="375" rx="110" ry="30"/><text x="4160" y="382" font-size="17" text-anchor="middle" text-decoration="underline" font-weight="700">ID conversación</text><ellipse class="attr" cx="3810" cy="305" rx="110" ry="30"/><text x="3810" y="312" font-size="17" text-anchor="middle">Número de WhatsApp</text><ellipse class="attr" cx="4410" cy="305" rx="110" ry="30"/><text x="4410" y="312" font-size="17" text-anchor="middle">Fecha y hora de inicio</text><ellipse class="attr" cx="4670" cy="500" rx="110" ry="30"/><text x="4670" y="507" font-size="17" text-anchor="middle">Fecha y hora de cierre</text><ellipse class="attr" cx="4420" cy="885" rx="110" ry="30"/><text x="4420" y="892" font-size="17" text-anchor="middle">Estado</text><ellipse class="attr" cx="3870" cy="885" rx="110" ry="30"/><text x="3870" y="892" font-size="17" text-anchor="middle">Modo de atención</text><rect class="entity" x="4050" y="600" width="220" height="80"/><text x="4160" y="649" font-size="22" font-weight="700" text-anchor="middle">CONVERSACIÓN</text><ellipse class="attr" cx="5490" cy="100" rx="110" ry="30"/><text x="5490" y="107" font-size="17" text-anchor="middle" text-decoration="underline" font-weight="700">ID usuario</text><ellipse class="attr" cx="5180" cy="195" rx="110" ry="30"/><text x="5180" y="202" font-size="17" text-anchor="middle">Nombre de usuario</text><ellipse class="attr" cx="5750" cy="195" rx="110" ry="30"/><text x="5750" y="202" font-size="17" text-anchor="middle">Credencial</text><ellipse class="attr" cx="5810" cy="460" rx="110" ry="30"/><text x="5810" y="467" font-size="17" text-anchor="middle">Estado</text><rect class="entity" x="5380" y="300" width="220" height="80"/><text x="5490" y="349" font-size="22" font-weight="700" text-anchor="middle">USUARIO</text><ellipse class="attr" cx="4920" cy="1100" rx="110" ry="30"/><text x="4920" y="1107" font-size="17" text-anchor="middle" text-decoration="underline" font-weight="700">ID EMPLEADO</text><ellipse class="attr" cx="5435" cy="1100" rx="110" ry="30"/><text x="5435" y="1107" font-size="17" text-anchor="middle">Área</text><rect class="subtype" x="5070" y="900" width="220" height="80"/><text x="5180" y="949" font-size="22" font-weight="700" text-anchor="middle">EMPLEADO</text><ellipse class="attr" cx="5810" cy="1100" rx="110" ry="30"/><text x="5810" y="1107" font-size="17" text-anchor="middle" text-decoration="underline" font-weight="700">ID ADMIN</text><rect class="subtype" x="5700" y="900" width="220" height="80"/><text x="5810" y="949" font-size="22" font-weight="700" text-anchor="middle">ADMINISTRADOR</text><ellipse class="attr" cx="1510" cy="1680" rx="110" ry="30"/><text x="1510" y="1687" font-size="17" text-anchor="middle" text-decoration="underline" font-weight="700">ID cuota</text><ellipse class="attr" cx="1200" cy="1620" rx="110" ry="30"/><text x="1200" y="1627" font-size="17" text-anchor="middle">Período</text><ellipse class="attr" cx="1800" cy="1620" rx="110" ry="30"/><text x="1800" y="1627" font-size="17" text-anchor="middle">Monto</text><ellipse class="attr" cx="1150" cy="2190" rx="110" ry="30"/><text x="1150" y="2197" font-size="17" text-anchor="middle">Fecha de emisión</text><ellipse class="attr" cx="1475" cy="2275" rx="110" ry="30"/><text x="1475" y="2282" font-size="17" text-anchor="middle">Fecha de vencimiento</text><ellipse class="attr derived" cx="1820" cy="2190" rx="110" ry="30"/><text x="1820" y="2197" font-size="17" text-anchor="middle">Estado</text><rect class="entity" x="1400" y="1900" width="220" height="80"/><text x="1510" y="1949" font-size="22" font-weight="700" text-anchor="middle">CUOTA</text><ellipse class="attr" cx="2810" cy="1680" rx="110" ry="30"/><text x="2810" y="1687" font-size="17" text-anchor="middle" text-decoration="underline" font-weight="700">ID comprobante</text><ellipse class="attr" cx="2470" cy="1620" rx="110" ry="30"/><text x="2470" y="1627" font-size="17" text-anchor="middle">Archivo</text><ellipse class="attr" cx="3120" cy="1620" rx="110" ry="30"/><text x="3120" y="1627" font-size="17" text-anchor="middle">Fecha de recepción</text><ellipse class="attr" cx="2390" cy="2170" rx="110" ry="30"/><text x="2390" y="2177" font-size="17" text-anchor="middle">N.º de operación</text><ellipse class="attr" cx="2645" cy="2290" rx="110" ry="30"/><text x="2645" y="2297" font-size="17" text-anchor="middle">Monto OCR</text><ellipse class="attr" cx="2920" cy="2290" rx="110" ry="30"/><text x="2920" y="2297" font-size="17" text-anchor="middle">Fecha OCR</text><ellipse class="attr" cx="3180" cy="2170" rx="110" ry="30"/><text x="3180" y="2177" font-size="17" text-anchor="middle">Estado de validación</text><ellipse class="attr" cx="3340" cy="1930" rx="110" ry="30"/><text x="3340" y="1937" font-size="17" text-anchor="middle">Motivo de rechazo</text><rect class="entity" x="2700" y="1900" width="220" height="80"/><text x="2810" y="1949" font-size="22" font-weight="700" text-anchor="middle">COMPROBANTE</text><ellipse class="attr" cx="4160" cy="1680" rx="110" ry="30"/><text x="4160" y="1687" font-size="17" text-anchor="middle" text-decoration="underline" font-weight="700">ID pago</text><ellipse class="attr" cx="3820" cy="1620" rx="110" ry="30"/><text x="3820" y="1627" font-size="17" text-anchor="middle">Fecha</text><ellipse class="attr" cx="4450" cy="1620" rx="110" ry="30"/><text x="4450" y="1627" font-size="17" text-anchor="middle">Monto</text><ellipse class="attr" cx="4160" cy="2210" rx="110" ry="30"/><text x="4160" y="2217" font-size="17" text-anchor="middle">Medio / cuenta receptora</text><rect class="entity" x="4050" y="1900" width="220" height="80"/><text x="4160" y="1949" font-size="22" font-weight="700" text-anchor="middle">PAGO</text><ellipse class="attr" cx="4160" cy="2875" rx="110" ry="30"/><text x="4160" y="2882" font-size="17" text-anchor="middle" text-decoration="underline" font-weight="700">ID ticket</text><ellipse class="attr" cx="3790" cy="2790" rx="110" ry="30"/><text x="3790" y="2797" font-size="17" text-anchor="middle">Fecha de creación</text><ellipse class="attr" cx="4530" cy="2790" rx="110" ry="30"/><text x="4530" y="2797" font-size="17" text-anchor="middle">Tipo</text><ellipse class="attr" cx="3750" cy="3400" rx="110" ry="30"/><text x="3750" y="3407" font-size="17" text-anchor="middle">Descripción</text><ellipse class="attr" cx="4160" cy="3480" rx="110" ry="30"/><text x="4160" y="3487" font-size="17" text-anchor="middle">Estado</text><ellipse class="attr" cx="4560" cy="3400" rx="110" ry="30"/><text x="4560" y="3407" font-size="17" text-anchor="middle">Fecha de resolución</text><rect class="entity" x="4050" y="3100" width="220" height="80"/><text x="4160" y="3149" font-size="22" font-weight="700" text-anchor="middle">TICKET</text><ellipse class="attr" cx="5310" cy="2875" rx="110" ry="30"/><text x="5310" y="2882" font-size="17" text-anchor="middle" text-decoration="underline" font-weight="700">ID nota</text><ellipse class="attr" cx="5010" cy="2790" rx="110" ry="30"/><text x="5010" y="2797" font-size="17" text-anchor="middle">Fecha y hora</text><ellipse class="attr" cx="5630" cy="2790" rx="110" ry="30"/><text x="5630" y="2797" font-size="17" text-anchor="middle">Contenido</text><rect class="entity" x="5200" y="3100" width="220" height="80"/><text x="5310" y="3149" font-size="22" font-weight="700" text-anchor="middle">NOTA INTERNA</text><text x="5530" y="835" text-anchor="middle" font-size="18">Restricción: especialización total y disjunta</text><text x="3100" y="3875" text-anchor="middle" font-size="18">En cada rombo: primera frase = origen → destino · segunda frase = destino → origen</text><text x="3100" y="3910" text-anchor="middle" font-size="18">Rectángulo: entidad · Rombo: relación verbal · Óvalo: atributo · Subrayado: identificador · Doble óvalo: multivaluado · Discontinuo: derivado</text></svg>